<?xml version="1.0" encoding="iso-8859-1"?>
<!-- Generator: Adobe Illustrator 19.0.0, SVG Export Plug-In . SVG Version: 6.00 Build 0)  -->
<svg version="1.1" id="Capa_1" xmlns="http://www.w3.org/2000/svg" xmlns:xlink="http://www.w3.org/1999/xlink" x="0px" y="0px"
	 viewBox="0 0 512 512" style="enable-background:new 0 0 512 512;" xml:space="preserve">
<path style="fill:#CCCCCC;" d="M256,0C114.669,0,0,114.597,0,255.959C0,397.403,114.669,512,256,512s256-114.597,256-256.041
	C512,114.597,397.331,0,256,0z M256,456.885c-110.899,0-200.885-89.925-200.885-200.916c0-110.93,89.986-200.854,200.885-200.854
	s200.885,89.925,200.885,200.854C456.885,366.961,366.899,456.885,256,456.885z"/>
<g>
	<path style="fill:#8C8C8C;" d="M242.819,55.557c-4.359-0.283-8.751-0.442-13.181-0.442c-110.899,0-200.885,89.925-200.885,200.854
		c0,110.992,89.986,200.916,200.885,200.916c4.43,0,8.822-0.159,13.181-0.442C138.06,449.651,55.115,362.527,55.115,255.969
		C55.115,149.471,138.06,62.348,242.819,55.557z"/>
	<path style="fill:#8C8C8C;" d="M256,0c-4.421,0-8.815,0.112-13.181,0.334C378.03,7.196,485.638,119.019,485.638,255.959
		c0,137.02-107.608,248.846-242.819,255.708c4.366,0.221,8.76,0.333,13.181,0.333c141.331,0,256-114.597,256-256.041
		C512,114.597,397.331,0,256,0z"/>
</g>
<g>
	<path style="fill:#A6A6A6;" d="M436.611,168.217h-190.64c-6.386,0-12.353,3.163-15.935,8.495L86.526,364.128
		c-8.413-13.192-15.331-27.439-20.479-42.525c-1.638-4.728-3.101-9.549-4.38-14.431l121.382-154.951
		c5.752-7.021,6.1-9.897,18.801-9.897h219.603C427.144,150.532,432.189,159.17,436.611,168.217z"/>
	<path style="fill:#A6A6A6;" d="M452.546,214.539H309.845c-6.386,0-12.343,3.152-15.925,8.485L144.7,423.509
		c-7.993-5.322-15.587-11.217-22.721-17.634c-6.489-5.834-12.609-12.087-18.32-18.709l143.264-188.634
		c5.762-7.011,6.11-9.887,18.811-9.887h179.474c2.743,7.594,5.015,15.362,6.775,23.355
		C452.177,212.84,452.362,213.69,452.546,214.539z"/>
	<path style="fill:#A6A6A6;" d="M456.885,256.204c0,2.18-0.031,4.36-0.102,6.52h-83.565c-6.386,0-12.353,3.152-15.925,8.484
		l-136.11,182.943c-5.353-0.931-10.634-2.088-15.843-3.439c-8.423-2.17-16.631-4.913-24.563-8.208
		c-4.196-1.678-8.331-3.5-12.384-5.455l141.903-190.322c5.752-7.021,6.11-9.897,18.811-9.897h126.847
		c0.542,5.588,0.819,11.248,0.87,16.99C456.885,254.597,456.885,255.436,456.885,256.204z"/>
</g>
<g>
</g>
<g>
</g>
<g>
</g>
<g>
</g>
<g>
</g>
<g>
</g>
<g>
</g>
<g>
</g>
<g>
</g>
<g>
</g>
<g>
</g>
<g>
</g>
<g>
</g>
<g>
</g>
<g>
</g>
</svg>
