<?xml version="1.0" encoding="iso-8859-1"?>
<!-- Generator: Adobe Illustrator 19.0.0, SVG Export Plug-In . SVG Version: 6.00 Build 0)  -->
<svg version="1.1" id="Capa_1" xmlns="http://www.w3.org/2000/svg" xmlns:xlink="http://www.w3.org/1999/xlink" x="0px" y="0px"
	 viewBox="0 0 512 512" style="enable-background:new 0 0 512 512;" xml:space="preserve">
<circle style="fill:#CCCCCC;" cx="256" cy="256" r="256"/>
<path style="fill:#8C8C8C;" d="M256,0c-6.059,0-12.064,0.226-18.018,0.64C370.957,9.888,485.73,120.674,485.73,256
	S370.957,502.112,237.982,511.36c5.954,0.414,11.959,0.64,18.018,0.64c141.385,0,256-114.615,256-256S397.385,0,256,0z"/>
<path style="fill:#2D3E6C;" d="M256,475.965c-121.289,0-219.963-98.674-219.963-219.963S134.712,36.034,256,36.034
	s219.963,98.679,219.963,219.968S377.289,475.965,256,475.965z"/>
<path style="fill:#233054;" d="M256.001,36.034c-4.324,0-8.615,0.14-12.877,0.387C358.441,43.112,450.21,139.037,450.21,256.002
	s-91.769,212.886-207.086,219.576c4.263,0.247,8.554,0.387,12.877,0.387c121.289,0,219.963-98.674,219.963-219.963
	S377.289,36.034,256.001,36.034z"/>
<path style="fill:#CCCCCC;" d="M93.4,379.46c-12.389-18.479-19.004-40.224-19.004-62.472V160.26c0-4.6,3.729-8.329,8.329-8.329
	h117.157c4.6,0,8.329,3.729,8.329,8.329v156.729c0,22.248-6.615,43.993-19.004,62.472l-44.48,66.344
	c-1.632,2.435-5.213,2.435-6.845,0L93.4,379.46z"/>
<path style="fill:#A6A6A6;" d="M208.255,160.25v156.732c0,22.252-6.614,43.989-18.997,62.47l-44.483,66.344
	c-0.824,1.236-2.153,1.854-3.472,1.834l0.052-51.035c27.866-37.045,38.199-65.427,38.199-80.035V159.828
	c0-3.678-2.39-6.799-5.697-7.901h26.074C204.526,151.926,208.255,155.656,208.255,160.25z"/>
<path style="fill:#CCCCCC;" d="M198.342,352.438c-12.389-18.479-19.004-40.224-19.004-62.472V133.238c0-4.6,3.729-8.329,8.329-8.329
	h117.157c4.6,0,8.329,3.729,8.329,8.329v156.729c0,22.248-6.615,43.993-19.004,62.472l-44.48,66.344
	c-1.632,2.435-5.213,2.435-6.845,0L198.342,352.438z"/>
<path style="fill:#E82934;" d="M117.379,364.286c-9.229-13.773-14.112-29.816-14.112-46.395V185.826
	c0-2.276,1.845-4.121,4.121-4.121h67.828c2.276,0,4.121,1.845,4.121,4.121v132.065c0,16.583-4.878,32.626-14.112,46.39
	l-20.501,30.58c-1.632,2.435-5.213,2.435-6.845,0L117.379,364.286z"/>
<polygon style="fill:#E3E3E3;" points="179.338,317.749 103.268,234.416 103.268,180.804 179.338,264.136 "/>
<path style="fill:#A6A6A6;" d="M313.15,133.231v156.732c0,22.252-6.614,43.989-18.997,62.47l-44.483,66.344
	c-0.824,1.236-2.153,1.854-3.472,1.834l0.052-51.035c27.866-37.045,38.199-65.427,38.199-80.035V132.808
	c0-3.678-2.39-6.799-5.697-7.901h26.074C309.42,124.907,313.15,128.636,313.15,133.231z"/>
<path style="fill:#CCCCCC;" d="M418.089,100.29v156.732c0,22.252-6.614,43.989-18.997,62.47l-44.483,66.344
	c-0.824,1.236-2.153,1.854-3.472,1.834c-0.309,0-0.618-0.041-0.917-0.113c-0.968-0.227-1.854-0.803-2.462-1.72l-44.473-66.344
	c-12.393-18.481-19.007-40.218-19.007-62.47V100.29c0-4.595,3.729-8.324,8.324-8.324h117.162
	C414.359,91.966,418.089,95.695,418.089,100.29z"/>
<path style="fill:#A3AFE3;" d="M222.32,337.261c-9.229-13.773-14.112-29.816-14.112-46.395V158.801c0-2.276,1.845-4.121,4.121-4.121
	h67.828c2.276,0,4.121,1.845,4.121,4.121v132.065c0,16.583-4.878,32.626-14.112,46.395l-20.501,30.576
	c-1.632,2.435-5.213,2.435-6.845,0L222.32,337.261z"/>
<path style="fill:#2C44BF;" d="M327.264,303.419c-9.234-13.778-14.116-29.821-14.116-46.395V123.929
	c0-1.707,1.384-3.091,3.091-3.091h69.893c1.707,0,3.091,1.384,3.091,3.091v133.095c0,16.574-4.882,32.617-14.116,46.39
	l-21.352,31.852c-1.224,1.826-3.91,1.826-5.134,0L327.264,303.419z"/>
<g>
	<polygon style="fill:#E3E3E3;" points="284.279,291.625 208.21,208.293 208.21,154.681 284.279,238.013 	"/>
	<polygon style="fill:#E3E3E3;" points="389.22,257.783 313.15,174.451 313.15,120.838 389.22,204.17 	"/>
</g>
<path style="fill:#A6A6A6;" d="M418.089,100.29v156.732c0,22.252-6.614,43.989-18.997,62.47l-44.483,66.344
	c-0.824,1.236-2.153,1.854-3.472,1.834l0.052-51.035c27.866-37.045,38.199-65.427,38.199-80.035V99.867
	c0-3.678-2.39-6.799-5.697-7.901h26.074C414.359,91.966,418.089,95.695,418.089,100.29z"/>
<g>
</g>
<g>
</g>
<g>
</g>
<g>
</g>
<g>
</g>
<g>
</g>
<g>
</g>
<g>
</g>
<g>
</g>
<g>
</g>
<g>
</g>
<g>
</g>
<g>
</g>
<g>
</g>
<g>
</g>
</svg>
