<svg height="512pt" viewBox="0 -41 512 512" width="512pt" xmlns="http://www.w3.org/2000/svg"><path d="m477 60h-86v-25c0-19.300781-15.699219-35-35-35h-100c-19.300781 0-35 15.699219-35 35v25h-45v-25c0-19.300781-15.699219-35-35-35h-50c-19.300781 0-35 15.699219-35 35v25h-21c-19.300781 0-35 15.699219-35 35v300c0 19.300781 15.699219 35 35 35h442c19.300781 0 35-15.699219 35-35v-300c0-19.300781-15.699219-35-35-35zm-226-25c0-2.757812 2.242188-5 5-5h100c2.757812 0 5 2.242188 5 5v25h-110zm-165 0c0-2.757812 2.242188-5 5-5h50c2.757812 0 5 2.242188 5 5v25h-60zm-56 360v-300c0-2.757812 2.242188-5 5-5h65v310h-65c-2.757812 0-5-2.242188-5-5zm452 0c0 2.757812-2.242188 5-5 5h-347v-310h347c2.757812 0 5 2.242188 5 5zm0 0"/><path d="m306 120c-68.925781 0-125 56.074219-125 125s56.074219 125 125 125 125-56.074219 125-125-56.074219-125-125-125zm0 220c-52.382812 0-95-42.617188-95-95s42.617188-95 95-95 95 42.617188 95 95-42.617188 95-95 95zm0 0"/><path d="m447 135c0 8.285156-6.714844 15-15 15s-15-6.714844-15-15 6.714844-15 15-15 15 6.714844 15 15zm0 0"/></svg>