<?xml version="1.0" encoding="iso-8859-1"?>
<!-- Generator: Adobe Illustrator 19.0.0, SVG Export Plug-In . SVG Version: 6.00 Build 0)  -->
<svg version="1.1" id="Capa_1" xmlns="http://www.w3.org/2000/svg" xmlns:xlink="http://www.w3.org/1999/xlink" x="0px" y="0px"
	 viewBox="0 0 512 512" style="enable-background:new 0 0 512 512;" xml:space="preserve">
<g>
	<path style="fill:#E3E3E3;" d="M476,131.42v247.172c0,2.194-1.151,4.234-3.033,5.347L259.135,511.135
		C258.169,511.711,257.09,512,256,512s-2.169-0.289-3.135-0.865L39.033,383.938c-1.881-1.113-3.033-3.152-3.033-5.347V127.856
		L252.895,0.845C253.862,0.288,254.931,0,256,0s2.138,0.288,3.105,0.845l213.832,125.208C474.828,127.165,476,129.216,476,131.42z"
		/>
	<path style="fill:#CCCCCC;" d="M476,131.42v247.172c0,2.194-1.151,4.234-3.033,5.347L259.135,511.135
		C258.169,511.711,257.09,512,256,512V0c1.069,0,2.138,0.288,3.105,0.845l213.832,125.208C474.828,127.165,476,129.216,476,131.42z"
		/>
	<path style="fill:#00ADDC;" d="M71.909,148.769L253.404,42.49c1.605-0.94,3.588-0.94,5.193,0l178.928,104.776
		c1.588,0.93,2.565,2.639,2.565,4.487v206.832c0,1.836-0.964,3.535-2.534,4.469L258.628,469.492c-1.62,0.964-3.634,0.964-5.254,0
		L74.444,363.055c-1.571-0.934-2.534-2.634-2.534-4.469V148.769H71.909L71.909,148.769z"/>
	<path style="fill:#E3E3E3;" d="M380.59,216.564c-19.872-16.287-47.801-29.336-71.564-44.013
		c-20.152-12.442-41.908-26.059-50.046-43.814c-1.157-2.524-4.802-2.524-5.958,0c-8.138,17.755-29.895,31.372-50.046,43.814
		c-23.763,14.677-51.692,27.726-71.564,44.013c-12.89,10.886-20.364,28.254-20.364,47.787c0,34.821,26.854,63.076,60.116,63.076
		c12.365,0,23.78-4.881,34.52-11.33c9.012-5.419,17.543-11.936,25.755-17.599c1.985-1.369,4.69,0.069,4.69,2.48v85.946
		c0,1.657,1.343,3,3,3h33.744c1.657,0,3-1.343,3-3v-85.946c0-2.411,2.706-3.848,4.69-2.48c8.212,5.663,16.743,12.18,25.755,17.599
		c10.74,6.449,22.155,11.33,34.52,11.33c33.262,0,60.116-28.254,60.116-63.076C400.953,244.819,393.479,227.45,380.59,216.564z
		 M231.97,259.309l-49.284,27.621c0,0-20.222,9.712-32.578-7.481c-6.249-8.68-6.082-17.1-4.016-23.734
		c2.183-6.994,6.907-12.907,13.023-16.874l69.852-41.667c2-1.193,4.537,0.248,4.537,2.576v56.941
		C233.503,257.777,232.917,258.778,231.97,259.309z M361.895,279.449c-12.357,17.193-32.578,7.481-32.578,7.481l-49.284-27.621
		c-0.947-0.531-1.533-1.532-1.533-2.617v-56.941c0-2.328,2.537-3.769,4.537-2.576l69.852,41.667
		c6.116,3.967,10.84,9.879,13.023,16.874C367.978,262.349,368.144,270.769,361.895,279.449z"/>
</g>
<g>
</g>
<g>
</g>
<g>
</g>
<g>
</g>
<g>
</g>
<g>
</g>
<g>
</g>
<g>
</g>
<g>
</g>
<g>
</g>
<g>
</g>
<g>
</g>
<g>
</g>
<g>
</g>
<g>
</g>
</svg>
