<?xml version="1.0" encoding="iso-8859-1"?>
<!-- Generator: Adobe Illustrator 19.0.0, SVG Export Plug-In . SVG Version: 6.00 Build 0)  -->
<svg version="1.1" id="Capa_1" xmlns="http://www.w3.org/2000/svg" xmlns:xlink="http://www.w3.org/1999/xlink" x="0px" y="0px"
	 viewBox="0 0 512 512" style="enable-background:new 0 0 512 512;" xml:space="preserve">
<path style="fill:#CCCCCC;" d="M402.919,2.653L256.99,511.136l-0.07,0.251c0,0.01,0,0.01-0.01,0.02
	C256.75,511.759,256.4,512,256,512c-0.4,0-0.75-0.241-0.91-0.593c-0.01-0.01-0.01-0.01-0.01-0.02l-0.07-0.251l-16.48-57.427
	L109.08,2.653c-0.46-1.628,1.1-3.106,2.68-2.523L256,52.633l110.05-40.06l34.19-12.442C401.82-0.452,403.379,1.025,402.919,2.653z"
	/>
<path style="fill:#8C8C8C;" d="M402.919,2.653L256.99,511.136l-0.07,0.251c0,0.01,0,0.01-0.01,0.02
	C256.75,511.759,256.4,512,256,512c-0.4,0-0.75-0.241-0.91-0.593c-0.01-0.01-0.01-0.01-0.01-0.02l-0.07-0.251l-16.48-57.427
	l16.46-56.925l1.01-3.508l99.17-343.085l10.88-37.618l34.19-12.442C401.82-0.452,403.379,1.025,402.919,2.653z"/>
<path style="fill:#E3E3E3;" d="M256,52.633V512c-0.4,0-0.75-0.241-0.91-0.593c-0.01-0.01-0.01-0.01-0.01-0.02l-0.07-0.251
	l-16.48-57.427L109.08,2.653c-0.46-1.628,1.1-3.106,2.68-2.523L256,52.633z"/>
<g>
	<path style="fill:#E82934;" d="M158.306,50.17l96.993,35.312c0.453,0.165,0.949,0.165,1.402,0l96.993-35.312
		c1.584-0.577,3.148,0.899,2.681,2.528l-98.395,342.85c-0.574,1.999-3.386,1.999-3.96,0l-98.395-342.85
		C155.158,51.069,156.722,49.594,158.306,50.17z"/>
	<path style="fill:#E82934;" d="M356.379,52.697l-98.401,342.856c-0.288,0.996-1.133,1.494-1.978,1.494
		c-0.845,0-1.68-0.498-1.978-1.484L155.62,52.697c-0.443-1.567,0.989-2.988,2.514-2.584l97.226,35.392
		c0.433,0.145,0.907,0.135,1.34-0.021l96.989-35.309C355.276,49.594,356.842,51.068,356.379,52.697z"/>
</g>
<path style="fill:#ED4F58;" d="M256,85.733v311.314c-0.845,0-1.68-0.498-1.978-1.484L155.62,52.697
	c-0.443-1.567,0.989-2.988,2.514-2.584l97.226,35.392L256,85.733z"/>
<path style="fill:#CCCCCC;" d="M297.019,161.15c-28.726,3.19-35.096,7.766-39.368,29.038c-0.263,1.307-3.04,1.307-3.303,0
	c-4.273-21.272-10.642-25.848-39.368-29.038c-1.869-0.208-1.869-2.039,0-2.246c28.726-3.19,35.096-7.766,39.368-29.038
	c0.263-1.307,3.04-1.307,3.303,0c4.273,21.272,10.642,25.848,39.368,29.038C298.888,159.112,298.888,160.943,297.019,161.15z"/>
<g>
</g>
<g>
</g>
<g>
</g>
<g>
</g>
<g>
</g>
<g>
</g>
<g>
</g>
<g>
</g>
<g>
</g>
<g>
</g>
<g>
</g>
<g>
</g>
<g>
</g>
<g>
</g>
<g>
</g>
</svg>
